# xmcd
#
# Track frame offsets:
#	150
#	13779
#	32181
#	47687
#	62184
#	78460
#	94509
#	111087
#	122456
#	138585
#	154450
#	168750
#	183396
#	193050
#	208408
#	223520
#	239898
#	252780
#
# Disc length: 3558 seconds
#
# Revision: 4
# Processed by: cddbd v1.5.1PL0 Copyright (c) Steve Scherf et al.
# Submitted via: audiograbber 1.83.01
#
DISCID=080de412
DTITLE=2001-03 Country Radio - 2001-03 Country Radio
DYEAR=2001
DGENRE=Country
TTITLE0=Dixie Chicks - If I Fall You're Going Down With Me
TTITLE1=George Strait - If You Can Do Anything Else
TTITLE2=Alan Jackson - When Somebody Loves You
TTITLE3=Clay Walker - Say No More
TTITLE4=Tracy Lawrence - Unforgiven
TTITLE5=Tracy Byrd and Mark Chesnutt - A Good Way To Be On My Bad Side
TTITLE6=Trisha Yearwood - I Would've Loved You Anyway
TTITLE7=Charlie Robinson - I Want You Bad
TTITLE8=Tommy Cochran - Angels In Waiting
TTITLE9=Marshall Dyllon - You
TTITLE10=Wilkinsons - I Wanna Be That Girl
TTITLE11=John Anderson - The Big Revival
TTITLE12=Tractors - Can't Get Nowhere
TTITLE13=Aaron Tippin - People Like Us(Turbo Mix)
TTITLE14=Rebel Hearts - Too Young
TTITLE15=Tom Wopat - The Moon's A Harsh Mistress
TTITLE16=Kacey Jones - Till Dale earnhardt Wins Cup #8
TTITLE17=Bellamy Brothers - What'll I Do
EXTD=
EXTT0=
EXTT1=
EXTT2=
EXTT3=
EXTT4=
EXTT5=
EXTT6=
EXTT7=
EXTT8=
EXTT9=
EXTT10=
EXTT11=
EXTT12=
EXTT13=
EXTT14=
EXTT15=
EXTT16=
EXTT17=
PLAYORDER=
